<svg width="185" height="46" viewBox="0 0 185 46" fill="none" xmlns="http://www.w3.org/2000/svg">
  <!-- Gear icon 38x38, centered vertically -->
  <g transform="translate(3, 4) scale(1.583)">
    <path d="M12 15.5A3.5 3.5 0 0 1 8.5 12 3.5 3.5 0 0 1 12 8.5a3.5 3.5 0 0 1 3.5 3.5 3.5 3.5 0 0 1-3.5 3.5m7.43-2.92c.04-.3.07-.61.07-.93s-.03-.63-.07-.93l2-1.56c.18-.14.23-.41.12-.61l-1.9-3.29c-.12-.22-.37-.3-.59-.22l-2.36.95c-.49-.38-1.03-.7-1.62-.94l-.35-2.51c-.04-.24-.24-.41-.48-.41h-3.8c-.24 0-.44.17-.47.41l-.35 2.51c-.59.24-1.13.57-1.62.94l-2.36-.95c-.22-.08-.47 0-.59.22L2.74 8.87c-.12.21-.08.47.12.61l2 1.56C4.78 11.37 4.75 11.69 4.75 12s.02.63.07.93l-2 1.56c-.18.14-.23.41-.12.61l1.9 3.29c.12.22.37.3.59.22l2.36-.95c.49.38 1.03.7 1.62.94l.35 2.51c.03.24.23.41.47.41h3.8c.24 0 .44-.17.47-.41l.35-2.51c.59-.24 1.13-.57 1.62-.94l2.36.95c.22.08.47 0 .59-.22l1.9-3.29c.12-.21.08-.47-.12-.61l-2-1.56z" fill="#FBBF24"/>
  </g>

  <!-- MECÁNICA -->
  <text x="48" y="22" font-family="'Arial Black', Arial, sans-serif" font-size="17" font-weight="900" fill="#FFFFFF" letter-spacing="0.5">MEC&#193;NICA</text>

  <!-- SÁNCHEZ -->
  <text x="49" y="40" font-family="'Arial Black', Arial, sans-serif" font-size="14" font-weight="900" fill="#FBBF24" letter-spacing="2.5">S&#193;NCHEZ</text>
</svg>
